# xmcd CD database file
#
# Track frame offsets:
#	150
#	15387
#	29497
#	43585
#	60882
#	72722
#	94700
#	112087
#	127329
#	150312
#	167110
#	194752
#	216735
#
# Disc length: 3058 seconds
#
# Revision: 0
# Processed by: cddbd v1.5.1PL0 Copyright (c) Steve Scherf et al.
# Submitted via: CDex 1.51
#
DISCID=c10bf00d
DTITLE=Barbara Blue - 3rd and Beale
DYEAR=2004
DGENRE=Blues
TTITLE0=24-7-365
TTITLE1=Rainy Night in Memphis
TTITLE2=Don't Need No Man Like That
TTITLE3=If I Had You
TTITLE4=Red Cadillac and The Blues
TTITLE5=Don't Put No Headstone On My Grave
TTITLE6=The Road Comes to Me
TTITLE7=(Shuffle) All Night Long
TTITLE8=Careful Blues
TTITLE9=Lie No Better
TTITLE10=Lake Charles
TTITLE11=One Good Man
TTITLE12=You Can't Stop My Love
EXTD=YEAR: 2004
EXTT0=
EXTT1=
EXTT2=
EXTT3=
EXTT4=
EXTT5=
EXTT6=
EXTT7=
EXTT8=
EXTT9=
EXTT10=
EXTT11=
EXTT12=
PLAYORDER=
